{"title":"Transformers: Dark of the Moon 2011 SCAM MPG HINDI ICTV","uid":6503840,"size":839980963,"categoryP":"video","categoryS":"movies","magnet":"?xt=urn:btih:acc04588b2ad33ffa8a531b0ffeee4ba0da26f18&amp;dn=Transformers%3A+Dark+of+the+Moon+2011+SCAM+MPG+HINDI+ICTV&amp;tr=udp%3A%2F%2Ftracker.openbittorrent.com%3A80&amp;tr=udp%3A%2F%2Fopen.demonii.com%3A1337&amp;tr=udp%3A%2F%2Ftracker.coppersurfer.tk%3A6969&amp;tr=udp%3A%2F%2Fexodus.desync.com%3A6969","seeders":0,"leechers":1,"uploader":"HeroMaster","files":-1,"time":1309353453,"description":"Transformers: Dark of the Moon 2011 SCAM MPG HINDI ICTV\n\n\nInformation:\n\n\nBanner.......... :  Paramount Pictures\n\nGenre............:  Action | Adventure | Sci-Fi\n\nYear.............:  2011\n\nCast.............:  Shia LaBeouf, Rosie Huntington-Whiteley and Tyrese Gibson\n\nVideo............:  MPG\n\nSOURCE...........:  ICTV\n\nLANGUAGE.........:  HINDI\n\n\nDetails:\n\n \nFormat                           : MPEG-PS\nFile size                        : 801 MiB\nDuration                         : 2h 23mn\nOverall bit rate                 : 780 Kbps\n\nVideo\nID                               : 224 (0xE0)\nFormat                           : MPEG Video\nFormat version                   : Version 2\nFormat settings, BVOP            : Yes\nFormat settings, Matrix          : Default\nDuration                         : 2h 23mn\nBit rate mode                    : Constant\nBit rate                         : 700 Kbps\nNominal bit rate                 : 1 150 Kbps\nWidth                            : 352 pixels\nHeight                           : 288 pixels\nDisplay aspect ratio             : 1.222\nFrame rate                       : 25.000 fps\nStandard                         : PAL\nColor space                      : YUV\nBit depth                        : 8 bits\nScan type                        : Progressive\nCompression mode                 : Lossy\nBits/(Pixel*Frame)               : 0.276\nStream size                      : 719 MiB (90%)\n\nAudio\nID                               : 192 (0xC0)\nFormat                           : MPEG Audio\nFormat version                   : Version 1\nFormat profile                   : Layer 2\nDuration                         : 2h 23mn\nBit rate mode                    : Constant\nBit rate                         : 64.0 Kbps\nChannel(s)                       : 2 channels\nSampling rate                    : 48.0 KHz\nCompression mode                 : Lossy\nStream size                      : 65.7 MiB (8%)\n\n\nScreenshot:\n\n &lt;a href=&quot;\nhttp://www.postimg.com/image/41000/photo-40078.jpg&quot; rel=&quot;nofollow&quot; target=&quot;_NEW&quot;&gt;\nhttp://www.postimg.com/image/41000/photo-40078.jpg&lt;/a&gt;\n\n\nENJOY!","torrent":{"xt":"urn:btih:acc04588b2ad33ffa8a531b0ffeee4ba0da26f18","amp;dn":"Transformers%3A+Dark+of+the+Moon+2011+SCAM+MPG+HINDI+ICTV","amp;tr":["udp%3A%2F%2Ftracker.openbittorrent.com%3A80","udp%3A%2F%2Fopen.demonii.com%3A1337","udp%3A%2F%2Ftracker.coppersurfer.tk%3A6969","udp%3A%2F%2Fexodus.desync.com%3A6969"],"infoHash":"acc04588b2ad33ffa8a531b0ffeee4ba0da26f18","infoHashBuffer":{"type":"Buffer","data":[172,192,69,136,178,173,51,255,168,165,49,176,255,238,228,186,13,162,111,24]},"announce":[],"urlList":[]}}